<svg width="50" height="50" viewBox="0 0 50 50" fill="none" xmlns="http://www.w3.org/2000/svg">
<path d="M50.0002 25C49.9967 26.0447 49.9298 27.0883 49.8 28.125C49.0051 34.4345 45.8355 40.2039 40.9366 44.2588C36.0376 48.3137 29.7774 50.3492 23.4305 49.9509C17.0836 49.5527 11.127 46.7506 6.77332 42.1152C2.41962 37.4797 -0.00390625 31.3594 -0.00390625 25C-0.00390625 18.6406 2.41962 12.5202 6.77332 7.88477C11.127 3.24933 17.0836 0.447287 23.4305 0.0490433C29.7774 -0.349201 36.0376 1.68629 40.9366 5.74116C45.8355 9.79603 49.0051 15.5655 49.8 21.875C49.9298 22.9116 49.9967 23.9552 50.0002 25Z" fill="#E18C89"/>
<path d="M27.5 36.25C26.8946 36.2514 26.3095 36.0317 25.8545 35.6323L15.8545 26.8823C15.5861 26.6476 15.371 26.3582 15.2236 26.0336C15.0762 25.7089 15 25.3565 15 25C15 24.6434 15.0762 24.291 15.2236 23.9664C15.371 23.6417 15.5861 23.3523 15.8545 23.1176L25.8545 14.3676C26.1015 14.1504 26.389 13.984 26.7004 13.8781C27.0118 13.7721 27.3411 13.7286 27.6694 13.7502C27.9976 13.7717 28.3184 13.8578 28.6133 14.0036C28.9083 14.1493 29.1715 14.3518 29.388 14.5995C29.6046 14.8472 29.7701 15.1351 29.8751 15.4469C29.9801 15.7586 30.0225 16.088 30 16.4162C29.9775 16.7444 29.8904 17.0649 29.7438 17.3594C29.5971 17.6539 29.3938 17.9165 29.1455 18.1323L21.2964 25L29.1455 31.8676C29.5286 32.2025 29.8004 32.6462 29.9246 33.1396C30.0488 33.6329 30.0195 34.1525 29.8407 34.6288C29.6619 35.1051 29.3419 35.5155 28.9237 35.8052C28.5054 36.0948 28.0088 36.25 27.5 36.25Z" fill="#D1504B"/>
<path d="M47.5 27.5H20C19.337 27.5 18.7011 27.2366 18.2322 26.7678C17.7634 26.2989 17.5 25.663 17.5 25C17.5 24.337 17.7634 23.7011 18.2322 23.2322C18.7011 22.7634 19.337 22.5 20 22.5H47.5C48.163 22.5 48.7989 22.7634 49.2678 23.2322C49.7366 23.7011 50 24.337 50 25C50 25.663 49.7366 26.2989 49.2678 26.7678C48.7989 27.2366 48.163 27.5 47.5 27.5Z" fill="#D1504B"/>
<path d="M25 49.9999C20.0555 50 15.222 48.5337 11.1108 45.7867C6.99953 43.0396 3.79521 39.1352 1.90302 34.567C0.0108321 29.9989 -0.484251 24.9722 0.480379 20.1227C1.44501 15.2732 3.82603 10.8186 7.32234 7.32228C10.8187 3.82597 15.2732 1.44495 20.1228 0.480318C24.9723 -0.484312 29.9989 0.0107711 34.5671 1.90296C39.1353 3.79515 43.0397 6.99947 45.7867 11.1107C48.5338 15.2219 50 20.0554 50 25C49.9922 31.628 47.3558 37.9823 42.6691 42.669C37.9824 47.3557 31.628 49.9922 25 49.9999ZM25 4.99995C21.0444 4.99995 17.1776 6.17293 13.8886 8.37056C10.5996 10.5682 8.03617 13.6918 6.52242 17.3463C5.00867 21.0008 4.6126 25.0221 5.38431 28.9018C6.15601 32.7814 8.06083 36.345 10.8579 39.1421C13.6549 41.9391 17.2186 43.844 21.0982 44.6157C24.9778 45.3874 28.9992 44.9913 32.6537 43.4775C36.3082 41.9638 39.4318 39.4003 41.6294 36.1114C43.827 32.8224 45 28.9556 45 25C44.9939 19.6975 42.8849 14.6139 39.1354 10.8645C35.386 7.1151 30.3025 5.00602 25 4.99995Z" fill="#D1504B"/>
</svg>
