<svg width="29" height="29" viewBox="0 0 29 29" fill="none" xmlns="http://www.w3.org/2000/svg">
<path d="M24.5438 0.0625H4.33125C3.18253 0.0625 2.08086 0.518827 1.26859 1.33109C0.456327 2.14336 2.61143e-07 3.24503 2.61143e-07 4.39375V6.08294C-0.000206756 6.67912 0.12267 7.26893 0.360938 7.81543V7.90206C0.56491 8.36546 0.853823 8.78659 1.21275 9.14368L10.1063 17.9794V27.4937C10.1058 27.7391 10.1678 27.9805 10.2865 28.1953C10.4053 28.41 10.5768 28.5909 10.7848 28.7209C11.0146 28.8633 11.2797 28.9384 11.55 28.9375C11.776 28.9361 11.9985 28.8817 12.1997 28.7787L17.9747 25.8912C18.2128 25.7712 18.413 25.5876 18.5532 25.3608C18.6933 25.134 18.7679 24.8729 18.7688 24.6062V17.9794L27.6045 9.14368C27.9634 8.78659 28.2523 8.36546 28.4563 7.90206V7.81543C28.7145 7.27321 28.8571 6.68322 28.875 6.08294V4.39375C28.875 3.24503 28.4187 2.14336 27.6064 1.33109C26.7941 0.518827 25.6925 0.0625 24.5438 0.0625ZM16.2999 16.3624C16.1661 16.4973 16.0603 16.6573 15.9884 16.8332C15.9166 17.0091 15.8802 17.1975 15.8813 17.3875V23.7111L12.9938 25.1549V17.3875C12.9948 17.1975 12.9584 17.0091 12.8866 16.8332C12.8147 16.6573 12.7089 16.4973 12.5751 16.3624L4.92319 8.725H23.9518L16.2999 16.3624ZM25.9875 5.8375H2.8875V4.39375C2.8875 4.01084 3.03961 3.64362 3.31037 3.37286C3.58112 3.10211 3.94834 2.95 4.33125 2.95H24.5438C24.9267 2.95 25.2939 3.10211 25.5646 3.37286C25.8354 3.64362 25.9875 4.01084 25.9875 4.39375V5.8375Z" fill="#F3EBD6"/>
</svg>
