<svg width="16" height="16" viewBox="0 0 16 16" fill="none" xmlns="http://www.w3.org/2000/svg">
<path d="M15.0394 14.2354L12.2585 11.475C13.338 10.1281 13.8607 8.41846 13.7193 6.69767C13.5778 4.97689 12.783 3.37574 11.4981 2.22344C10.2133 1.07115 8.5361 0.455301 6.81147 0.502529C5.08683 0.549757 3.44582 1.25647 2.22586 2.47736C1.0059 3.69824 0.299719 5.3405 0.252527 7.06645C0.205334 8.7924 0.820716 10.4708 1.97213 11.7567C3.12355 13.0425 4.72349 13.838 6.44297 13.9795C8.16245 14.1211 9.87076 13.5979 11.2167 12.5177L13.975 15.2781C14.0447 15.3484 14.1276 15.4042 14.2189 15.4423C14.3103 15.4804 14.4082 15.5 14.5072 15.5C14.6061 15.5 14.7041 15.4804 14.7955 15.4423C14.8868 15.4042 14.9697 15.3484 15.0394 15.2781C15.1745 15.1382 15.25 14.9513 15.25 14.7568C15.25 14.5622 15.1745 14.3753 15.0394 14.2354ZM7.01166 12.5177C5.97392 12.5177 4.95949 12.2097 4.09664 11.6327C3.2338 11.0558 2.56129 10.2357 2.16417 9.27621C1.76705 8.31674 1.66314 7.26097 1.86559 6.2424C2.06804 5.22383 2.56776 4.28822 3.30155 3.55387C4.03534 2.81952 4.97024 2.31943 5.98804 2.11682C7.00584 1.91421 8.06081 2.0182 9.01955 2.41562C9.97829 2.81305 10.7977 3.48607 11.3743 4.34957C11.9508 5.21307 12.2585 6.22827 12.2585 7.26679C12.2585 8.65941 11.7057 9.99499 10.7218 10.9797C9.73778 11.9644 8.40322 12.5177 7.01166 12.5177Z" fill="#F3EBD6"/>
</svg>
