<svg width="30" height="29" viewBox="0 0 30 29" fill="none" xmlns="http://www.w3.org/2000/svg">
<path d="M29.3758 26.5032L24.0227 21.1894C26.1006 18.5965 27.1069 15.3055 26.8346 11.993C26.5623 8.68051 25.0322 5.59829 22.5589 3.38013C20.0856 1.16196 16.857 -0.0235465 13.5371 0.0673676C10.2171 0.158282 7.0582 1.51871 4.70978 3.86891C2.36135 6.21912 1.00196 9.38047 0.911114 12.7029C0.820269 16.0254 2.00488 19.2564 4.22136 21.7316C6.43784 24.2068 9.51772 25.7381 12.8277 26.0106C16.1377 26.283 19.4262 25.276 22.0171 23.1965L27.3269 28.5104C27.461 28.6457 27.6206 28.7531 27.7965 28.8264C27.9723 28.8998 28.1609 28.9375 28.3514 28.9375C28.5418 28.9375 28.7304 28.8998 28.9063 28.8264C29.0821 28.7531 29.2417 28.6457 29.3758 28.5104C29.6359 28.2411 29.7813 27.8813 29.7813 27.5068C29.7813 27.1323 29.6359 26.7725 29.3758 26.5032ZM13.9224 23.1965C11.9248 23.1965 9.97202 22.6037 8.31104 21.493C6.65007 20.3823 5.35549 18.8037 4.59103 16.9567C3.82656 15.1097 3.62654 13.0774 4.01626 11.1166C4.40599 9.15588 5.36794 7.35482 6.78049 5.9412C8.19303 4.52758 9.99272 3.56489 11.952 3.17488C13.9112 2.78486 15.9421 2.98503 17.7876 3.75008C19.6332 4.51512 21.2107 5.81068 22.3205 7.47292C23.4303 9.13516 24.0227 11.0894 24.0227 13.0886C24.0227 15.7694 22.9586 18.3404 21.0644 20.236C19.1702 22.1316 16.6012 23.1965 13.9224 23.1965Z" fill="#F3EBD6"/>
</svg>
