<svg width="72" height="72" viewBox="0 0 72 72" fill="none" xmlns="http://www.w3.org/2000/svg">
<g clip-path="url(#clip0_1602_2024)">
<path d="M50.6175 24.9412C50.3051 24.1322 49.8267 23.3975 49.2131 22.7846C48.5996 22.1717 47.8644 21.694 47.055 21.3825C45.9405 20.9697 44.7634 20.7515 43.575 20.7375C41.5987 20.6475 41.0062 20.625 36 20.625C30.9938 20.625 30.4012 20.6475 28.425 20.7375C27.2354 20.7511 26.0569 20.9693 24.9412 21.3825C24.1322 21.6949 23.3975 22.1733 22.7846 22.7869C22.1717 23.4004 21.694 24.1356 21.3825 24.945C20.9697 26.0595 20.7515 27.2366 20.7375 28.425C20.6475 30.4012 20.625 30.9938 20.625 36C20.625 41.0063 20.6475 41.5987 20.7375 43.575C20.7511 44.7646 20.9693 45.9431 21.3825 47.0588C21.6949 47.8678 22.1733 48.6025 22.7869 49.2154C23.4004 49.8283 24.1356 50.306 24.945 50.6175C26.0595 51.0303 27.2366 51.2485 28.425 51.2625C30.4012 51.3525 30.9938 51.375 36 51.375C41.0062 51.375 41.5987 51.3525 43.575 51.2625C44.7646 51.2489 45.9431 51.0307 47.0587 50.6175C47.8678 50.3051 48.6025 49.8267 49.2154 49.2131C49.8283 48.5996 50.306 47.8644 50.6175 47.055C51.0303 45.9405 51.2485 44.7634 51.2625 43.575C51.3525 41.5987 51.375 41.0063 51.375 36C51.375 30.9938 51.3525 30.4012 51.2625 28.425C51.2489 27.2354 51.0307 26.0569 50.6175 24.9412ZM36 45.63C34.0954 45.63 32.2335 45.0652 30.6499 44.0071C29.0662 42.9489 27.8319 41.4449 27.103 39.6852C26.3742 37.9256 26.1835 35.9893 26.555 34.1213C26.9266 32.2532 27.8438 30.5373 29.1906 29.1906C30.5373 27.8438 32.2532 26.9266 34.1213 26.555C35.9893 26.1835 37.9256 26.3742 39.6852 27.103C41.4449 27.8319 42.9489 29.0662 44.0071 30.6499C45.0652 32.2335 45.63 34.0954 45.63 36C45.63 38.554 44.6154 41.0035 42.8094 42.8094C41.0035 44.6154 38.554 45.63 36 45.63ZM46.0087 28.2413C45.5637 28.2413 45.1287 28.1093 44.7587 27.8621C44.3887 27.6148 44.1003 27.2634 43.93 26.8523C43.7597 26.4412 43.7152 25.9888 43.802 25.5523C43.8888 25.1158 44.1031 24.7149 44.4178 24.4003C44.7324 24.0856 45.1333 23.8713 45.5698 23.7845C46.0063 23.6977 46.4587 23.7422 46.8698 23.9125C47.2809 24.0828 47.6323 24.3712 47.8796 24.7412C48.1268 25.1112 48.2587 25.5462 48.2587 25.9913C48.2587 26.588 48.0217 27.1603 47.5997 27.5822C47.1778 28.0042 46.6055 28.2413 46.0087 28.2413Z" fill="#E9B733"/>
<path d="M36 42.251C39.4525 42.251 42.2513 39.4523 42.2513 35.9998C42.2513 32.5473 39.4525 29.7485 36 29.7485C32.5476 29.7485 29.7488 32.5473 29.7488 35.9998C29.7488 39.4523 32.5476 42.251 36 42.251Z" fill="#E9B733"/>
<path d="M36 0C28.8799 0 21.9197 2.11136 15.9995 6.06709C10.0793 10.0228 5.46511 15.6453 2.74035 22.2234C0.0155982 28.8015 -0.697322 36.0399 0.691746 43.0233C2.08081 50.0066 5.50948 56.4212 10.5442 61.4558C15.5789 66.4905 21.9934 69.9192 28.9768 71.3083C35.9601 72.6973 43.1985 71.9844 49.7766 69.2597C56.3548 66.5349 61.9772 61.9207 65.9329 56.0005C69.8886 50.0804 72 43.1201 72 36C72 26.4522 68.2072 17.2955 61.4559 10.5442C54.7046 3.79285 45.5478 0 36 0ZM54.6375 43.7325C54.6053 45.2872 54.3099 46.8253 53.7638 48.2812C53.2822 49.5265 52.5457 50.6575 51.6016 51.6016C50.6575 52.5457 49.5266 53.2822 48.2813 53.7637C46.8253 54.3099 45.2872 54.6053 43.7325 54.6375C41.73 54.7275 41.0925 54.75 36 54.75C30.9075 54.75 30.27 54.7275 28.2675 54.6375C26.7128 54.6053 25.1748 54.3099 23.7188 53.7637C22.4735 53.2822 21.3425 52.5457 20.3984 51.6016C19.4543 50.6575 18.7179 49.5265 18.2363 48.2812C17.6901 46.8253 17.3947 45.2872 17.3625 43.7325C17.2725 41.73 17.25 41.0925 17.25 36C17.25 30.9075 17.2725 30.27 17.3625 28.2675C17.3947 26.7128 17.6901 25.1747 18.2363 23.7187C18.7179 22.4735 19.4543 21.3425 20.3984 20.3984C21.3425 19.4543 22.4735 18.7178 23.7188 18.2362C25.1748 17.6901 26.7128 17.3947 28.2675 17.3625C30.27 17.2725 30.9075 17.25 36 17.25C41.0925 17.25 41.73 17.2725 43.7325 17.3625C45.2872 17.3947 46.8253 17.6901 48.2813 18.2362C49.5266 18.7178 50.6575 19.4543 51.6016 20.3984C52.5457 21.3425 53.2822 22.4735 53.7638 23.7187C54.3099 25.1747 54.6053 26.7128 54.6375 28.2675C54.7275 30.27 54.75 30.9075 54.75 36C54.75 41.0925 54.7275 41.73 54.6375 43.7325Z" fill="#E9B733"/>
</g>
<defs>
<clipPath id="clip0_1602_2024">
<rect width="72" height="72" fill="white"/>
</clipPath>
</defs>
</svg>
