<svg width="30" height="30" viewBox="0 0 30 30" fill="none" xmlns="http://www.w3.org/2000/svg">
<g id="Icono Aire" clip-path="url(#clip0_1218_1386)">
<path id="Vector" d="M4.51075 23.9989C4.2142 23.9989 3.92432 24.0869 3.67775 24.2517C3.43118 24.4166 3.239 24.6509 3.12552 24.925C3.01203 25.1992 2.98234 25.5008 3.04019 25.7919C3.09805 26.0829 3.24085 26.3502 3.45054 26.56C3.66023 26.7698 3.92739 26.9127 4.21824 26.9706C4.50909 27.0285 4.81056 26.9988 5.08453 26.8852C5.35851 26.7717 5.59268 26.5794 5.75743 26.3327C5.92218 26.086 6.01012 25.7959 6.01012 25.4992C6.01012 25.1013 5.85215 24.7197 5.57096 24.4383C5.28978 24.157 4.90841 23.9989 4.51075 23.9989ZM25.5019 17.9978H15.0063C14.6087 17.9978 14.2273 18.1559 13.9461 18.4372C13.6649 18.7186 13.507 19.1002 13.507 19.4981C13.507 19.896 13.6649 20.2776 13.9461 20.5589C14.2273 20.8403 14.6087 20.9983 15.0063 20.9983H25.5019C25.8996 20.9983 26.2809 21.1564 26.5621 21.4378C26.8433 21.7191 27.0013 22.1007 27.0013 22.4986C27.0013 22.8965 26.8433 23.2781 26.5621 23.5595C26.2809 23.8408 25.8996 23.9989 25.5019 23.9989C25.1042 23.9989 24.7229 24.157 24.4417 24.4383C24.1605 24.7197 24.0025 25.1013 24.0025 25.4992C24.0025 25.8971 24.1605 26.2787 24.4417 26.56C24.7229 26.8414 25.1042 26.9994 25.5019 26.9994C26.6949 26.9994 27.839 26.5253 28.6825 25.6812C29.5261 24.8371 30 23.6923 30 22.4986C30 21.3049 29.5261 20.1601 28.6825 19.3161C27.839 18.472 26.6949 17.9978 25.5019 17.9978ZM18.0051 13.497C18.0051 13.8949 18.163 14.2765 18.4442 14.5578C18.7254 14.8392 19.1068 14.9972 19.5044 14.9972H25.5019C26.6949 14.9972 27.839 14.523 28.6825 13.679C29.5261 12.8349 30 11.6901 30 10.4964C30 10.0985 29.842 9.71691 29.5608 9.43556C29.2797 9.1542 28.8983 8.99613 28.5006 8.99613C28.103 8.99613 27.7216 9.1542 27.4404 9.43556C27.1592 9.71691 27.0013 10.0985 27.0013 10.4964C27.0013 10.8943 26.8433 11.2759 26.5621 11.5573C26.2809 11.8386 25.8996 11.9967 25.5019 11.9967H19.5044C19.1068 11.9967 18.7254 12.1548 18.4442 12.4361C18.163 12.7175 18.0051 13.0991 18.0051 13.497ZM12.0076 19.4981C12.0076 19.1002 11.8496 18.7186 11.5684 18.4372C11.2872 18.1559 10.9059 17.9978 10.5082 17.9978H6.01012C5.2148 17.9978 4.45206 17.6817 3.88969 17.1189C3.32732 16.5562 3.01138 15.793 3.01138 14.9972C3.01138 14.2014 3.32732 13.4382 3.88969 12.8755C4.45206 12.3128 5.2148 11.9967 6.01012 11.9967C6.40777 11.9967 6.78914 11.8386 7.07033 11.5573C7.35152 11.2759 7.50949 10.8943 7.50949 10.4964C7.51332 8.722 8.14565 7.0064 9.29414 5.6544C10.4426 4.30239 12.0329 3.40153 13.7825 3.11186C15.532 2.82219 17.3275 3.16247 18.8501 4.07224C20.3726 4.98201 21.5235 6.40237 22.0983 8.08097C22.2256 8.45897 22.4977 8.77091 22.8548 8.94816C23.2119 9.12542 23.6248 9.15347 24.0025 9.02614C24.3803 8.89881 24.6921 8.62654 24.8692 8.26922C25.0464 7.91189 25.0744 7.49879 24.9471 7.12079C24.1837 4.87431 22.6824 2.95275 20.6879 1.6692C18.6934 0.385638 16.3233 -0.184258 13.9638 0.0523629C11.6042 0.288984 9.39427 1.31817 7.69403 2.97224C5.99379 4.62631 4.90347 6.80776 4.60071 9.16116C3.17119 9.50371 1.91718 10.3596 1.07681 11.5664C0.236434 12.7731 -0.131765 14.2467 0.0421305 15.7072C0.216027 17.1677 0.919907 18.5134 2.0201 19.4889C3.1203 20.4643 4.54018 21.0014 6.01012 20.9983H10.5082C10.9059 20.9983 11.2872 20.8403 11.5684 20.5589C11.8496 20.2776 12.0076 19.896 12.0076 19.4981ZM12.0076 13.497C12.0076 13.7937 12.0955 14.0838 12.2603 14.3305C12.425 14.5772 12.6592 14.7695 12.9332 14.883C13.2071 14.9966 13.5086 15.0263 13.7995 14.9684C14.0903 14.9105 14.3575 14.7676 14.5672 14.5578C14.7769 14.348 14.9197 14.0807 14.9775 13.7897C15.0354 13.4986 15.0057 13.197 14.8922 12.9228C14.7787 12.6487 14.5865 12.4144 14.34 12.2495C14.0934 12.0847 13.8035 11.9967 13.507 11.9967C13.1093 11.9967 12.7279 12.1548 12.4467 12.4361C12.1656 12.7175 12.0076 13.0991 12.0076 13.497ZM18.0051 23.9989H10.5082C10.1106 23.9989 9.72919 24.157 9.44801 24.4383C9.16682 24.7197 9.00885 25.1013 9.00885 25.4992C9.00885 25.8971 9.16682 26.2787 9.44801 26.56C9.72919 26.8414 10.1106 26.9994 10.5082 26.9994H18.0051C18.4027 26.9994 18.7841 27.1575 19.0653 27.4389C19.3465 27.7202 19.5044 28.1018 19.5044 28.4997C19.5044 28.8976 19.6624 29.2792 19.9436 29.5606C20.2248 29.8419 20.6061 30 21.0038 30C21.4015 30 21.7828 29.8419 22.064 29.5606C22.3452 29.2792 22.5032 28.8976 22.5032 28.4997C22.5032 27.306 22.0293 26.1612 21.1857 25.3172C20.3421 24.4731 19.198 23.9989 18.0051 23.9989Z" fill="#1D1F1D"/>
</g>
<defs>
<clipPath id="clip0_1218_1386">
<rect width="30" height="30" fill="white"/>
</clipPath>
</defs>
</svg>
