<svg xmlns="http://www.w3.org/2000/svg" width="30" height="30" viewBox="0 0 30 30" fill="none">
  <path d="M8.6129 11.1515C8.83389 11.1515 9.01304 10.9723 9.01304 10.7513C9.01304 10.5303 8.83389 10.3512 8.6129 10.3512C8.39192 10.3512 8.21277 10.5303 8.21277 10.7513C8.21277 10.9723 8.39192 11.1515 8.6129 11.1515Z" fill="#F7FFF1"/>
  <path d="M2.38386 6.55083H2.68082V12.399C2.68082 13.9998 3.97849 15.2975 5.57933 15.2975H7.01658C6.59793 15.5091 6.1709 15.6613 5.73994 15.752C5.51429 15.7997 5.09424 15.8881 5.0098 16.2447C4.95912 16.4589 5.05246 16.6624 5.28718 16.8495C5.43127 16.9643 5.77228 17.0992 6.28591 17.0992C7.01605 17.0992 8.09517 16.8262 9.45244 15.835C9.54056 15.8406 9.63045 15.8451 9.72402 15.8471C9.92019 16.0273 10.1502 16.1724 10.4065 16.276L11.5135 20.7294L11.2196 24.879H11.0895C10.8791 24.879 10.7086 25.0495 10.7086 25.2599C10.7086 25.4702 10.8791 25.6407 11.0895 25.6407H13.5283L14.072 21.9729L14.7904 24.8792H14.7064C14.4961 24.8792 14.3256 25.0498 14.3256 25.2601C14.3256 25.4705 14.4961 25.641 14.7064 25.641H17.3007L16.6864 20.4148C16.935 20.14 17.137 19.8279 17.2871 19.4937C17.8472 19.6544 18.7308 19.87 20.1964 19.87C20.5338 19.87 20.8706 19.8466 21.2021 19.8014C21.3882 20.1701 21.6326 20.4722 21.933 20.6995C22.3202 20.9926 22.5495 21.422 22.569 21.8853L21.4654 24.8787H21.2762C21.0659 24.8787 20.8954 25.0492 20.8954 25.2595C20.8954 25.4699 21.0659 25.6404 21.2762 25.6404H23.3721V25.6409H26.5028V23.2122L27.1103 19.4952V21.4266C27.1103 22.1489 27.583 22.7629 28.2353 22.9755C28.4833 23.0563 28.7387 22.8752 28.7387 22.6144C28.7387 22.4476 28.6296 22.3028 28.471 22.2511C28.1236 22.1381 27.872 21.8111 27.872 21.4266V15.3269C27.872 13.8966 27.3149 12.5514 26.3031 11.5392C25.3354 10.5715 23.8163 9.97036 22.3386 9.97036H17.0683C16.858 9.97036 16.6875 10.1409 16.6875 10.3512C16.6875 10.5616 16.858 10.7321 17.0683 10.7321H22.3386C23.6216 10.7321 24.9345 11.2477 25.7645 12.0777C26.6324 12.946 27.1103 14.0999 27.1103 15.3269C27.1103 16.2183 26.9845 17.1046 26.7363 17.9611L26.4055 19.1021L25.7411 23.1504V24.8792H24.8847V21.3758C24.8847 20.6603 24.5456 19.9966 23.9545 19.5551C23.6904 19.3573 23.4716 19.0884 23.3039 18.7554C23.1713 18.4929 23.0697 18.1839 23.01 17.8611C22.9704 17.6493 22.9599 17.4923 22.9572 17.4346L22.9569 17.4274C22.9527 17.3479 22.9261 17.2701 22.8764 17.2079C22.7451 17.043 22.5296 17.0067 22.3646 17.0952L22.314 17.1218C21.9076 17.3363 21.2276 17.6951 19.7689 17.6951C19.2387 17.6951 18.7819 17.608 18.3719 17.4285C17.9026 17.2234 17.5714 16.9817 17.3731 16.8126C17.2312 16.6939 17.0318 16.6823 16.8769 16.7841C16.722 16.8857 16.6534 17.0735 16.7068 17.2541C16.8171 17.6157 16.9098 18.1814 16.7252 18.8231C16.5638 19.3853 16.252 19.7798 16.0187 20.0117L15.8875 20.1424L16.4443 24.8793H15.5751L14.4729 20.4203C15.1223 19.6297 15.5123 18.6667 15.5948 17.6489C15.6128 17.4284 15.4357 17.2404 15.2145 17.2404C15.0157 17.2404 14.8515 17.3935 14.8353 17.5918C14.7572 18.5426 14.3635 19.4371 13.707 20.1412L13.5483 20.3116L12.8712 24.879H11.9832L12.2819 20.6628L11.2315 16.4379C11.5976 16.4341 11.9584 16.3315 12.2844 16.1325C12.7972 15.8198 13.1583 15.3006 13.275 14.708C13.3542 14.3065 13.548 13.7192 14.0222 13.2013C14.2504 12.9522 14.5199 12.7431 14.8233 12.5799C15.3688 12.2865 15.7577 11.7871 15.89 11.2099C16.0464 10.5269 15.9556 9.80899 15.6342 9.18837C15.1241 8.20335 14.1181 7.59146 13.0089 7.59146H10.3726L9.95881 7.59274C7.7265 7.59274 5.91045 9.40903 5.91045 11.6416V12.2323C5.91045 12.5358 5.67402 12.7846 5.3834 12.7867C5.23234 12.7891 5.08949 12.726 4.98666 12.6136C4.89385 12.5122 4.84802 12.3762 4.84802 12.2386V6.31452C4.84802 5.23458 3.97258 4.35913 2.89263 4.35913H2.35691C1.73857 4.35913 1.2383 4.87388 1.26191 5.49731C1.28429 6.09028 1.79043 6.55083 2.38386 6.55083ZM24.123 24.8792H23.9243L24.123 24.3577V24.8792ZM22.7958 19.4003C22.99 19.7041 23.2252 19.9607 23.4984 20.165C23.8953 20.4617 24.123 20.903 24.123 21.3758V22.2183L23.1092 24.8787H22.2774L23.3322 22.0177V21.9497C23.3322 21.2212 22.9898 20.5442 22.3928 20.0921C22.2386 19.9757 22.1046 19.827 21.9906 19.6496C22.2579 19.5827 22.5251 19.4999 22.7958 19.4003ZM17.587 17.8859C17.731 17.9679 17.8909 18.0494 18.0668 18.1264C18.5747 18.3487 19.1314 18.4568 19.769 18.4568C21.0024 18.4568 21.7693 18.2157 22.2607 17.9974C22.2608 17.9985 22.261 17.9995 22.2613 18.0005C22.3075 18.2502 22.3728 18.4887 22.4563 18.7135C22.1184 18.8335 21.7875 18.9245 21.4533 18.9889C21.0435 19.0682 20.6206 19.1083 20.1965 19.1083C18.8574 19.1083 18.0429 18.9165 17.5217 18.7685C17.5864 18.4525 17.6017 18.1546 17.587 17.8859ZM6.5074 16.3327C7.03427 16.159 7.55107 15.9049 8.05129 15.5751C8.139 15.6043 8.23451 15.6329 8.33769 15.6601C7.56642 16.1164 6.94867 16.289 6.5074 16.3327ZM2.35691 5.12085H2.89263C3.55187 5.12085 4.08631 5.65528 4.08631 6.31452V12.2273C4.08631 12.5617 4.20326 12.8894 4.43072 13.1344C4.6808 13.4037 5.02562 13.5513 5.38914 13.5484C6.0966 13.5431 6.67216 12.9527 6.67216 12.2323V11.6416C6.67216 9.82903 8.14656 8.35446 9.95998 8.35446L10.3738 8.35317H13.0089C13.8449 8.35317 14.5734 8.79632 14.9579 9.5387C15.1964 9.99931 15.2638 10.5323 15.1475 11.0397C15.0643 11.4028 14.8146 11.7197 14.4625 11.9091C14.0836 12.113 13.7465 12.3746 13.4605 12.687C12.9907 13.2 12.6682 13.8479 12.5278 14.5607C12.4521 14.9444 12.2189 15.2803 11.8877 15.4823C11.5705 15.6759 11.2023 15.7267 10.8507 15.6252C10.3149 15.4707 9.92277 15.0568 9.79521 14.5139V13.6387C9.79521 13.4283 9.6247 13.2578 9.41435 13.2578C9.204 13.2578 9.03349 13.4283 9.03349 13.6387V14.5954L9.0417 14.6342C9.07181 14.777 9.11394 14.9141 9.16732 15.0445C8.21845 14.9272 7.74507 14.609 7.74138 14.6065L7.64218 14.5358H5.57933C4.3992 14.5358 3.44254 13.5791 3.44254 12.399V6.40095C3.44254 6.06304 3.16861 5.78911 2.8307 5.78911H2.36857C2.19877 5.78911 2.04724 5.66735 2.02556 5.49896C1.99949 5.29522 2.15816 5.12085 2.35691 5.12085Z" fill="#F7FFF1"/>
  <path d="M9.55518 12.3941H9.87732C11.0476 12.3941 12.0251 11.5526 12.2364 10.4429C12.2809 10.2091 12.0994 9.9928 11.8614 9.9928C11.677 9.9928 11.5221 10.1256 11.4868 10.3066C11.3399 11.0611 10.6741 11.6324 9.87732 11.6324H9.55518C9.34482 11.6324 9.17432 11.8029 9.17432 12.0132C9.17432 12.2236 9.34482 12.3941 9.55518 12.3941ZM14.8497 15.7227V16.0806C14.8497 16.2909 15.0202 16.4614 15.2306 16.4614C15.4409 16.4614 15.6114 16.2909 15.6114 16.0806V15.7227C15.6114 15.5124 15.4409 15.3419 15.2306 15.3419C15.0202 15.3419 14.8497 15.5124 14.8497 15.7227Z" fill="#F7FFF1"/>
</svg>