<svg xmlns="http://www.w3.org/2000/svg" width="30" height="30" viewBox="0 0 30 30" fill="none">
  <g clip-path="url(#clip0_1817_2580)">
    <path d="M28.5938 20.625H25.7006L26.4441 19.8816C26.8102 19.5155 26.8102 18.922 26.4441 18.5559C26.0784 18.1898 25.4841 18.1898 25.1184 18.5559L23.0494 20.625H21.0938H19.2188H17.3058C18.2002 19.6284 18.75 18.3164 18.75 16.875V9.375H22.0312V10.3125C22.0312 10.83 22.4513 11.25 22.9688 11.25C23.4862 11.25 23.9062 10.83 23.9062 10.3125V7.35047C23.9062 5.62359 22.5014 4.21875 20.7745 4.21875H18.6117C18.2072 2.865 16.9523 1.875 15.4688 1.875H13.125C12.1195 1.875 11.1769 2.14359 10.3589 2.60812C10.0364 2.29313 9.84375 1.86656 9.84375 1.40625C9.84375 0.88875 9.42375 0.46875 8.90625 0.46875C8.38875 0.46875 7.96875 0.88875 7.96875 1.40625C7.96875 2.30531 8.30531 3.15562 8.89547 3.80391C8.69109 4.03734 8.50688 4.28766 8.34328 4.55297C7.53891 4.11328 7.03125 3.27844 7.03125 2.34375C7.03125 1.82625 6.61125 1.40625 6.09375 1.40625C5.57625 1.40625 5.15625 1.82625 5.15625 2.34375C5.15625 4.04531 6.12375 5.55422 7.635 6.28828C7.54875 6.67875 7.5 7.08375 7.5 7.5V9.73312C5.58234 10.4855 4.21875 12.3502 4.21875 14.5312V20.625H1.40625C0.88875 20.625 0.46875 21.045 0.46875 21.5625C0.46875 22.08 0.88875 22.5 1.40625 22.5H4.21875V23.4375C4.21875 23.955 4.63875 24.375 5.15625 24.375C5.44266 24.375 5.72484 24.3572 6.00469 24.3319C5.84906 25.5619 5.48766 26.7712 4.935 27.877L4.78641 28.1737C4.64109 28.4644 4.65656 28.8094 4.82719 29.0859C4.99828 29.363 5.30016 29.5312 5.625 29.5312H12.6562C13.1737 29.5312 13.5938 29.1112 13.5938 28.5938C13.5938 26.5303 13.3256 24.488 12.8044 22.5H18.2812V23.4375C18.2812 24.9886 19.5427 26.25 21.0938 26.25H22.9688C23.4862 26.25 23.9062 25.83 23.9062 25.3125V23.4375C23.9062 23.1084 23.8463 22.7939 23.7422 22.5H28.5938C29.1112 22.5 29.5312 22.08 29.5312 21.5625C29.5312 21.045 29.1112 20.625 28.5938 20.625ZM12.6384 20.625C13.8211 19.0561 14.5312 17.1117 14.5312 15V14.5312C14.5312 13.9875 14.4455 13.4634 14.2884 12.9708C15.052 12.465 15.9497 12.1875 16.875 12.1875V16.875C16.875 18.9427 15.1927 20.625 13.125 20.625H12.6384ZM22.0312 7.35047V7.5H18.75V6.09375H20.7745C21.4673 6.09375 22.0312 6.65766 22.0312 7.35047ZM9.375 7.5C9.375 5.43234 11.0573 3.75 13.125 3.75H15.4688C16.2441 3.75 16.875 4.38094 16.875 5.15625V10.3125C15.638 10.3125 14.4356 10.6664 13.3988 11.3152C12.4528 10.1344 11.002 9.375 9.375 9.375V7.5ZM6.09375 14.5312C6.09375 12.7219 7.56563 11.25 9.375 11.25C11.1844 11.25 12.6562 12.7219 12.6562 14.5312V15C12.6562 18.818 9.78844 21.9788 6.09375 22.4414V14.5312ZM7.08234 27.6562C7.54359 26.475 7.81969 25.2206 7.91859 23.9587C8.99016 23.6278 9.97453 23.1023 10.8445 22.4348C11.3372 24.1369 11.6245 25.8858 11.6991 27.6562H7.08234ZM22.0312 24.375H21.0938C20.5767 24.375 20.1562 23.9545 20.1562 23.4375V22.5H21.0938C21.6108 22.5 22.0312 22.9205 22.0312 23.4375V24.375Z" fill="#F7FFF1"/>
    <path d="M14.5407 7.03125C15.0582 7.03125 15.4782 6.61125 15.4782 6.09375C15.4782 5.57625 15.0582 5.15625 14.5407 5.15625H14.536C14.0185 5.15625 13.6008 5.57625 13.6008 6.09375C13.6008 6.61125 14.0232 7.03125 14.5407 7.03125Z" fill="#F7FFF1"/>
  </g>
  <defs>
    <clipPath id="clip0_1817_2580">
      <rect width="30" height="30" fill="white"/>
    </clipPath>
  </defs>
</svg>