<svg width="30" height="31" viewBox="0 0 30 31" fill="none" xmlns="http://www.w3.org/2000/svg">
<g id="Icono Aire" clip-path="url(#clip0_1375_1085)">
<path id="Vector" d="M4.51075 24.4989C4.2142 24.4989 3.92432 24.5869 3.67775 24.7517C3.43118 24.9166 3.239 25.1509 3.12552 25.425C3.01203 25.6992 2.98234 26.0008 3.04019 26.2919C3.09805 26.5829 3.24085 26.8502 3.45054 27.06C3.66023 27.2698 3.92739 27.4127 4.21824 27.4706C4.50909 27.5285 4.81056 27.4988 5.08453 27.3852C5.35851 27.2717 5.59268 27.0794 5.75743 26.8327C5.92218 26.586 6.01012 26.2959 6.01012 25.9992C6.01012 25.6013 5.85215 25.2197 5.57096 24.9383C5.28978 24.657 4.90841 24.4989 4.51075 24.4989ZM25.5019 18.4978H15.0063C14.6087 18.4978 14.2273 18.6559 13.9461 18.9372C13.6649 19.2186 13.507 19.6002 13.507 19.9981C13.507 20.396 13.6649 20.7776 13.9461 21.0589C14.2273 21.3403 14.6087 21.4983 15.0063 21.4983H25.5019C25.8996 21.4983 26.2809 21.6564 26.5621 21.9378C26.8433 22.2191 27.0013 22.6007 27.0013 22.9986C27.0013 23.3965 26.8433 23.7781 26.5621 24.0595C26.2809 24.3408 25.8996 24.4989 25.5019 24.4989C25.1042 24.4989 24.7229 24.657 24.4417 24.9383C24.1605 25.2197 24.0025 25.6013 24.0025 25.9992C24.0025 26.3971 24.1605 26.7787 24.4417 27.06C24.7229 27.3414 25.1042 27.4994 25.5019 27.4994C26.6949 27.4994 27.839 27.0253 28.6825 26.1812C29.5261 25.3371 30 24.1923 30 22.9986C30 21.8049 29.5261 20.6601 28.6825 19.8161C27.839 18.972 26.6949 18.4978 25.5019 18.4978ZM18.0051 13.997C18.0051 14.3949 18.163 14.7765 18.4442 15.0578C18.7254 15.3392 19.1068 15.4972 19.5044 15.4972H25.5019C26.6949 15.4972 27.839 15.023 28.6825 14.179C29.5261 13.3349 30 12.1901 30 10.9964C30 10.5985 29.842 10.2169 29.5608 9.93556C29.2797 9.6542 28.8983 9.49613 28.5006 9.49613C28.103 9.49613 27.7216 9.6542 27.4404 9.93556C27.1592 10.2169 27.0013 10.5985 27.0013 10.9964C27.0013 11.3943 26.8433 11.7759 26.5621 12.0573C26.2809 12.3386 25.8996 12.4967 25.5019 12.4967H19.5044C19.1068 12.4967 18.7254 12.6548 18.4442 12.9361C18.163 13.2175 18.0051 13.5991 18.0051 13.997ZM12.0076 19.9981C12.0076 19.6002 11.8496 19.2186 11.5684 18.9372C11.2872 18.6559 10.9059 18.4978 10.5082 18.4978H6.01012C5.2148 18.4978 4.45206 18.1817 3.88969 17.6189C3.32732 17.0562 3.01138 16.293 3.01138 15.4972C3.01138 14.7014 3.32732 13.9382 3.88969 13.3755C4.45206 12.8128 5.2148 12.4967 6.01012 12.4967C6.40777 12.4967 6.78914 12.3386 7.07033 12.0573C7.35152 11.7759 7.50949 11.3943 7.50949 10.9964C7.51332 9.222 8.14565 7.5064 9.29414 6.1544C10.4426 4.80239 12.0329 3.90153 13.7825 3.61186C15.532 3.32219 17.3275 3.66247 18.8501 4.57224C20.3726 5.48201 21.5235 6.90237 22.0983 8.58097C22.2256 8.95897 22.4977 9.27091 22.8548 9.44816C23.2119 9.62542 23.6248 9.65347 24.0025 9.52614C24.3803 9.39881 24.6921 9.12654 24.8692 8.76922C25.0464 8.41189 25.0744 7.99879 24.9471 7.62079C24.1837 5.37431 22.6824 3.45275 20.6879 2.1692C18.6934 0.885638 16.3233 0.315742 13.9638 0.552363C11.6042 0.788984 9.39427 1.81817 7.69403 3.47224C5.99379 5.12631 4.90347 7.30776 4.60071 9.66116C3.17119 10.0037 1.91718 10.8596 1.07681 12.0664C0.236434 13.2731 -0.131765 14.7467 0.0421305 16.2072C0.216027 17.6677 0.919907 19.0134 2.0201 19.9889C3.1203 20.9643 4.54018 21.5014 6.01012 21.4983H10.5082C10.9059 21.4983 11.2872 21.3403 11.5684 21.0589C11.8496 20.7776 12.0076 20.396 12.0076 19.9981ZM12.0076 13.997C12.0076 14.2937 12.0955 14.5838 12.2603 14.8305C12.425 15.0772 12.6592 15.2695 12.9332 15.383C13.2071 15.4966 13.5086 15.5263 13.7995 15.4684C14.0903 15.4105 14.3575 15.2676 14.5672 15.0578C14.7769 14.848 14.9197 14.5807 14.9775 14.2897C15.0354 13.9986 15.0057 13.697 14.8922 13.4228C14.7787 13.1487 14.5865 12.9144 14.34 12.7495C14.0934 12.5847 13.8035 12.4967 13.507 12.4967C13.1093 12.4967 12.7279 12.6548 12.4467 12.9361C12.1656 13.2175 12.0076 13.5991 12.0076 13.997ZM18.0051 24.4989H10.5082C10.1106 24.4989 9.72919 24.657 9.44801 24.9383C9.16682 25.2197 9.00885 25.6013 9.00885 25.9992C9.00885 26.3971 9.16682 26.7787 9.44801 27.06C9.72919 27.3414 10.1106 27.4994 10.5082 27.4994H18.0051C18.4027 27.4994 18.7841 27.6575 19.0653 27.9389C19.3465 28.2202 19.5044 28.6018 19.5044 28.9997C19.5044 29.3976 19.6624 29.7792 19.9436 30.0606C20.2248 30.3419 20.6061 30.5 21.0038 30.5C21.4015 30.5 21.7828 30.3419 22.064 30.0606C22.3452 29.7792 22.5032 29.3976 22.5032 28.9997C22.5032 27.806 22.0293 26.6612 21.1857 25.8172C20.3421 24.9731 19.198 24.4989 18.0051 24.4989Z" fill="#E7ECE3"/>
</g>
<defs>
<clipPath id="clip0_1375_1085">
<rect width="30" height="30" fill="white" transform="translate(0 0.5)"/>
</clipPath>
</defs>
</svg>
