<svg width="30" height="30" viewBox="0 0 30 30" fill="none" xmlns="http://www.w3.org/2000/svg">
<g id="Ruler">
<path id="Vector" d="M28.2625 8.81252L21.25 1.73752C21.1332 1.62167 20.9947 1.53001 20.8424 1.46781C20.6901 1.4056 20.527 1.37407 20.3625 1.37502C20.0346 1.3764 19.7203 1.50659 19.4875 1.73752L1.73751 19.425C1.5047 19.6592 1.37402 19.976 1.37402 20.3063C1.37402 20.6365 1.5047 20.9533 1.73751 21.1875L8.81251 28.2625C8.92931 28.3784 9.06783 28.47 9.22013 28.5322C9.37243 28.5944 9.53551 28.626 9.70001 28.625C10.0279 28.6236 10.3422 28.4935 10.575 28.2625L14.1125 24.725L24.725 14.1125L28.2625 10.575C28.4953 10.3408 28.626 10.024 28.626 9.69377C28.626 9.36354 28.4953 9.04672 28.2625 8.81252ZM23.8375 11.4625L22.95 10.575C22.7158 10.3422 22.399 10.2115 22.0688 10.2115C21.7385 10.2115 21.4217 10.3422 21.1875 10.575C21.0704 10.6912 20.9774 10.8295 20.9139 10.9818C20.8504 11.1341 20.8178 11.2975 20.8178 11.4625C20.8178 11.6275 20.8504 11.7909 20.9139 11.9432C20.9774 12.0956 21.0704 12.2338 21.1875 12.35L22.075 13.2375L20.3 15L17.65 12.35C17.4109 12.1452 17.1033 12.0382 16.7887 12.0504C16.4741 12.0625 16.1757 12.1929 15.9531 12.4156C15.7304 12.6382 15.6 12.9366 15.5879 13.2512C15.5757 13.5658 15.6827 13.8734 15.8875 14.1125L18.5375 16.7625L16.7625 18.5375L15.8875 17.65C15.6521 17.4146 15.3329 17.2824 15 17.2824C14.6671 17.2824 14.3479 17.4146 14.1125 17.65C13.8771 17.8854 13.7449 18.2046 13.7449 18.5375C13.7449 18.8704 13.8771 19.1896 14.1125 19.425L15 20.3L13.2375 22.075L10.575 19.425C10.3408 19.1922 10.024 19.0615 9.69376 19.0615C9.36353 19.0615 9.04672 19.1922 8.81251 19.425C8.5797 19.6592 8.44902 19.976 8.44902 20.3063C8.44902 20.6365 8.5797 20.9533 8.81251 21.1875L11.4625 23.8375L9.70001 25.6125L4.38751 20.3L20.3 4.38752L25.6125 9.70002L23.8375 11.4625Z" fill="#F9FFF5"/>
</g>
</svg>
