<svg width="30" height="30" viewBox="0 0 30 30" fill="none" xmlns="http://www.w3.org/2000/svg">
<g id="Weight" clip-path="url(#clip0_1218_1379)">
<path id="Vector" d="M29.9669 27.7326L26.6131 10.5177C26.4345 9.60122 25.5701 8.93046 24.5576 8.93046H20.0724C20.7946 7.99827 21.1832 6.86532 21.1832 5.68581C21.1832 2.55007 18.4094 0.00170898 14.9999 0.00170898C11.5904 0.00170898 8.81658 2.54867 8.81658 5.68441C8.81658 6.86387 9.20522 7.99827 9.92735 8.93046H5.44212C4.42981 8.93046 3.56535 9.60122 3.38664 10.5177L0.0328346 27.7298C-0.0764735 28.2912 0.0889746 28.8694 0.486786 29.3065C0.884597 29.7437 1.4683 30 2.08825 30H27.9114C28.5314 30 29.1151 29.7452 29.513 29.3079C29.9108 28.8706 30.0762 28.2939 29.9669 27.7326ZM28.7344 28.714C28.5299 28.9387 28.23 29.0768 27.9114 29.0768H2.08825C1.76969 29.0768 1.46978 28.9387 1.26536 28.714C1.06095 28.4894 0.975996 28.1905 1.03214 27.902L4.38594 10.6886C4.47777 10.2177 4.92193 9.87172 5.44212 9.87172H12.2586L11.3761 9.07408C10.3802 8.17194 9.83178 6.97086 9.83178 5.69048C9.83178 3.06959 12.1502 0.937773 14.9999 0.937773C17.8496 0.937773 20.168 3.07026 20.168 5.69116C20.168 6.97149 19.6195 8.17176 18.6236 9.07397L17.7412 9.87172H24.5576C25.0779 9.87172 25.522 10.2153 25.6137 10.6862L28.9676 27.9011C29.0238 28.1894 28.9387 28.4893 28.7344 28.714Z" fill="#1D1F1D"/>
<path id="Vector_2" d="M18.0222 5.69142C18.0222 4.15874 16.6664 2.91187 15 2.91187C13.3335 2.91187 11.9777 4.15874 11.9777 5.69142C11.9777 7.2241 13.3335 8.47103 15 8.47103C16.6664 8.47103 18.0222 7.2241 18.0222 5.69142ZM15 7.53731C13.8933 7.53731 12.993 6.70925 12.993 5.69142C12.993 4.67364 13.8933 3.84559 15 3.84559C16.1066 3.84559 17.0069 4.67364 17.0069 5.69142C17.0069 6.70925 16.1066 7.53731 15 7.53731ZM12.1791 19.1458L14.1217 17.2978C14.253 17.1728 14.2904 16.9949 14.2167 16.8349C14.1428 16.6749 13.9722 16.5782 13.7832 16.5782H13.1433C13.0115 16.5782 12.8768 16.6218 12.7877 16.7111L9.97819 19.5077V17.2331C9.97819 16.8635 9.64696 16.5638 9.24508 16.5638C8.84319 16.5638 8.51196 16.8635 8.51196 17.2331V22.5242C8.51196 22.8938 8.84319 23.1934 9.24508 23.1934C9.64696 23.1934 9.97819 22.8938 9.97819 22.5242V21.19L11.1671 20.0821L13.0168 22.9751C13.1013 23.1077 13.2604 23.185 13.4275 23.185H14.1732C14.3457 23.185 14.5046 23.1023 14.5869 22.9628C14.6693 22.8231 14.662 22.6554 14.5679 22.5222L12.1791 19.1458ZM21.7179 20.072C21.7179 19.8329 21.5459 19.6191 21.2858 19.6191H19.227C18.8917 19.6191 18.6199 19.8899 18.6199 20.1983C18.6199 20.5067 18.8916 20.7776 19.227 20.7776H20.2517V21.597C20.0745 21.7536 19.7863 21.8871 19.48 21.9972C19.1734 22.1073 18.8765 22.1622 18.5717 22.1622C17.9553 22.1622 17.4615 21.9655 17.0813 21.5721C16.7009 21.1787 16.5131 20.5886 16.5131 19.8017C16.5131 19.0721 16.7019 18.522 17.0772 18.151C17.4523 17.7803 17.9586 17.5948 18.5946 17.5948C19.0141 17.5948 19.3643 17.689 19.6446 17.8774C19.8003 17.9822 19.9287 18.108 20.0292 18.2552C20.1863 18.485 20.4805 18.6033 20.7707 18.5534L20.7724 18.5531C21.0202 18.5104 21.2273 18.3549 21.3227 18.1404C21.4182 17.9261 21.389 17.6817 21.2451 17.4915C21.0945 17.2924 20.9102 17.1181 20.6922 16.9686C20.1889 16.6234 19.49 16.4507 18.5951 16.4507C17.9067 16.4507 17.3313 16.5609 16.8694 16.7809C16.2628 17.0674 15.8023 17.4788 15.4876 18.0155C15.1729 18.552 15.0156 19.1656 15.0156 19.8559C15.0156 20.4922 15.1565 21.0807 15.4384 21.6219C15.7203 22.1631 16.1417 22.5791 16.702 22.87C17.2628 23.161 17.9198 23.3064 18.6738 23.3064C19.2671 23.3064 19.853 23.2031 20.4317 22.9966C20.9065 22.8272 21.2698 22.6359 21.5602 22.4228C21.672 22.3407 21.7179 22.2157 21.7179 22.0841V20.072H21.7179Z" fill="#1D1F1D"/>
</g>
<defs>
<clipPath id="clip0_1218_1379">
<rect width="30" height="30" fill="white"/>
</clipPath>
</defs>
</svg>
