<svg width="30" height="31" viewBox="0 0 30 31" fill="none" xmlns="http://www.w3.org/2000/svg">
<g id="Weight" clip-path="url(#clip0_1375_1013)">
<path id="Vector" d="M29.967 28.2326L26.6132 11.0177C26.4347 10.1012 25.5702 9.43046 24.5578 9.43046H20.0725C20.7947 8.49827 21.1833 7.36532 21.1833 6.18581C21.1833 3.05007 18.4095 0.501709 15 0.501709C11.5905 0.501709 8.8167 3.04867 8.8167 6.18441C8.8167 7.36387 9.20534 8.49827 9.92747 9.43046H5.44224C4.42993 9.43046 3.56547 10.1012 3.38676 11.0177L0.0329567 28.2298C-0.0763514 28.7912 0.0890966 29.3694 0.486908 29.8065C0.884719 30.2437 1.46842 30.5 2.08837 30.5H27.9116C28.5315 30.5 29.1152 30.2452 29.5131 29.8079C29.9109 29.3706 30.0764 28.7939 29.967 28.2326ZM28.7345 29.214C28.53 29.4387 28.2301 29.5768 27.9116 29.5768H2.08837C1.76981 29.5768 1.4699 29.4387 1.26549 29.214C1.06107 28.9894 0.976118 28.6905 1.03226 28.402L4.38606 11.1886C4.47789 10.7177 4.92205 10.3717 5.44224 10.3717H12.2587L11.3762 9.57408C10.3804 8.67194 9.8319 7.47086 9.8319 6.19048C9.8319 3.56959 12.1503 1.43777 15 1.43777C17.8497 1.43777 20.1681 3.57026 20.1681 6.19116C20.1681 7.47149 19.6196 8.67176 18.6238 9.57397L17.7413 10.3717H24.5577C25.078 10.3717 25.5222 10.7153 25.6139 11.1862L28.9677 28.4011C29.0239 28.6894 28.9389 28.9893 28.7345 29.214Z" fill="#F9FFF5"/>
<path id="Vector_2" d="M18.0224 6.19142C18.0224 4.65874 16.6667 3.41187 15.0002 3.41187C13.3338 3.41187 11.978 4.65874 11.978 6.19142C11.978 7.7241 13.3338 8.97103 15.0002 8.97103C16.6667 8.97103 18.0224 7.7241 18.0224 6.19142ZM15.0002 8.03731C13.8935 8.03731 12.9932 7.20925 12.9932 6.19142C12.9932 5.17364 13.8935 4.34559 15.0002 4.34559C16.1068 4.34559 17.0072 5.17364 17.0072 6.19142C17.0072 7.20925 16.1068 8.03731 15.0002 8.03731ZM12.1794 19.6458L14.122 17.7978C14.2533 17.6728 14.2907 17.4949 14.2169 17.3349C14.143 17.1749 13.9724 17.0782 13.7834 17.0782H13.1435C13.0118 17.0782 12.8771 17.1218 12.7879 17.2111L9.97844 20.0077V17.7331C9.97844 17.3635 9.64721 17.0638 9.24532 17.0638C8.84344 17.0638 8.51221 17.3635 8.51221 17.7331V23.0242C8.51221 23.3938 8.84344 23.6934 9.24532 23.6934C9.64721 23.6934 9.97844 23.3938 9.97844 23.0242V21.69L11.1674 20.5821L13.017 23.4751C13.1015 23.6077 13.2607 23.685 13.4278 23.685H14.1734C14.346 23.685 14.5049 23.6023 14.5872 23.4628C14.6696 23.3231 14.6622 23.1554 14.5681 23.0222L12.1794 19.6458ZM21.7181 20.572C21.7181 20.3329 21.5462 20.1191 21.2861 20.1191H19.2273C18.892 20.1191 18.6201 20.3899 18.6201 20.6983C18.6201 21.0067 18.8919 21.2776 19.2273 21.2776H20.2519V22.097C20.0748 22.2536 19.7865 22.3871 19.4802 22.4972C19.1737 22.6073 18.8767 22.6622 18.572 22.6622C17.9556 22.6622 17.4618 22.4655 17.0816 22.0721C16.7012 21.6787 16.5134 21.0886 16.5134 20.3017C16.5134 19.5721 16.7021 19.022 17.0775 18.651C17.4526 18.2803 17.9588 18.0948 18.5948 18.0948C19.0143 18.0948 19.3645 18.189 19.6449 18.3774C19.8005 18.4822 19.9289 18.608 20.0294 18.7552C20.1865 18.985 20.4808 19.1033 20.771 19.0534L20.7727 19.0531C21.0204 19.0104 21.2275 18.8549 21.323 18.6404C21.4184 18.4261 21.3892 18.1817 21.2453 17.9915C21.0947 17.7924 20.9104 17.6181 20.6924 17.4686C20.1892 17.1234 19.4903 16.9507 18.5954 16.9507C17.907 16.9507 17.3315 17.0609 16.8696 17.2809C16.2631 17.5674 15.8025 17.9788 15.4879 18.5155C15.1732 19.052 15.0158 19.6656 15.0158 20.3559C15.0158 20.9922 15.1567 21.5807 15.4387 22.1219C15.7206 22.6631 16.1419 23.0791 16.7023 23.37C17.2631 23.661 17.92 23.8064 18.6741 23.8064C19.2673 23.8064 19.8533 23.7031 20.432 23.4966C20.9068 23.3272 21.27 23.1359 21.5604 22.9228C21.6722 22.8407 21.7182 22.7157 21.7182 22.5841V20.572H21.7181Z" fill="#F9FFF5"/>
</g>
<defs>
<clipPath id="clip0_1375_1013">
<rect width="30" height="30" fill="white" transform="translate(0 0.5)"/>
</clipPath>
</defs>
</svg>
