<svg width="30" height="31" viewBox="0 0 30 31" fill="none" xmlns="http://www.w3.org/2000/svg">
<path d="M30 15.5C30 12.5333 29.1203 9.63319 27.472 7.16645C25.8238 4.69971 23.4811 2.77713 20.7403 1.64181C17.9994 0.506499 14.9834 0.209449 12.0736 0.788227C9.16393 1.36701 6.49119 2.79562 4.3934 4.8934C2.29562 6.99119 0.867006 9.66394 0.288227 12.5737C-0.29055 15.4834 0.00649834 18.4994 1.14181 21.2403C2.27713 23.9811 4.19971 26.3238 6.66645 27.972C9.13319 29.6203 12.0333 30.5 15 30.5C18.9772 30.4967 22.7906 28.9153 25.6029 26.1029C28.4153 23.2906 29.9967 19.4772 30 15.5ZM14.04 21.3013L7.79 13.8013C7.68478 13.6752 7.60542 13.5296 7.55645 13.3729C7.50749 13.2161 7.48987 13.0513 7.50461 12.8878C7.51935 12.7242 7.56616 12.5652 7.64237 12.4197C7.71857 12.2742 7.82269 12.1452 7.94875 12.04C8.07482 11.9348 8.22038 11.8554 8.37712 11.8065C8.53386 11.7575 8.69871 11.7399 8.86226 11.7546C9.0258 11.7694 9.18485 11.8162 9.3303 11.8924C9.47576 11.9686 9.60478 12.0727 9.71 12.1988L15 18.5463L20.29 12.1988C20.3952 12.0727 20.5242 11.9686 20.6697 11.8924C20.8152 11.8162 20.9742 11.7694 21.1377 11.7546C21.3013 11.7399 21.4661 11.7575 21.6229 11.8065C21.7796 11.8554 21.9252 11.9348 22.0513 12.04C22.1773 12.1452 22.2814 12.2742 22.3576 12.4197C22.4338 12.5652 22.4807 12.7242 22.4954 12.8878C22.5101 13.0513 22.4925 13.2161 22.4436 13.3729C22.3946 13.5296 22.3152 13.6752 22.21 13.8013L15.96 21.3013C15.8427 21.4419 15.6959 21.5551 15.53 21.6328C15.3641 21.7104 15.1832 21.7507 15 21.7507C14.8168 21.7507 14.6359 21.7104 14.47 21.6328C14.3041 21.5551 14.1573 21.4419 14.04 21.3013Z" fill="#8BAC3F"/>
</svg>
