<svg width="64" height="65" viewBox="0 0 64 65" fill="none" xmlns="http://www.w3.org/2000/svg">
<path d="M64 32.5C64 26.171 62.1232 19.9841 58.607 14.7218C55.0908 9.45939 50.0931 5.35787 44.2459 2.93587C38.3986 0.513865 31.9645 -0.119842 25.7571 1.11489C19.5497 2.34961 13.8479 5.39732 9.37259 9.87259C4.89731 14.3479 1.84961 20.0497 0.614883 26.2571C-0.619843 32.4645 0.0138626 38.8986 2.43587 44.7459C4.85787 50.5931 8.95938 55.5908 14.2218 59.107C19.4841 62.6232 25.671 64.5 32 64.5C40.4848 64.4929 48.62 61.1193 54.6196 55.1196C60.6193 49.12 63.9929 40.9848 64 32.5ZM29.952 44.876L16.6187 28.876C16.3942 28.6071 16.2249 28.2965 16.1204 27.9622C16.016 27.6278 15.9784 27.2761 16.0098 26.9272C16.0413 26.5783 16.1411 26.239 16.3037 25.9287C16.4663 25.6184 16.6884 25.3431 16.9573 25.1187C17.2263 24.8942 17.5368 24.7249 17.8712 24.6204C18.2056 24.516 18.5572 24.4784 18.9061 24.5098C19.255 24.5413 19.5943 24.6411 19.9046 24.8037C20.215 24.9663 20.4902 25.1884 20.7147 25.4573L32 38.9987L43.2853 25.4573C43.5098 25.1884 43.7851 24.9663 44.0954 24.8037C44.4057 24.6411 44.745 24.5413 45.0939 24.5098C45.4428 24.4784 45.7944 24.516 46.1288 24.6204C46.4632 24.7249 46.7737 24.8942 47.0427 25.1187C47.3116 25.3431 47.5337 25.6184 47.6963 25.9287C47.8589 26.239 47.9587 26.5783 47.9902 26.9272C48.0216 27.2761 47.984 27.6278 47.8796 27.9622C47.7751 28.2965 47.6058 28.6071 47.3813 28.876L34.048 44.876C33.7977 45.1761 33.4846 45.4176 33.1307 45.5832C32.7768 45.7489 32.3908 45.8348 32 45.8348C31.6092 45.8348 31.2232 45.7489 30.8693 45.5832C30.5154 45.4176 30.2023 45.1761 29.952 44.876Z" fill="#8BAC3F"/>
</svg>
