<svg width="72" height="72" viewBox="0 0 72 72" fill="none" xmlns="http://www.w3.org/2000/svg">
<path d="M36 0C16.1489 0 0 16.1493 0 35.9994C0 55.8501 16.1489 72 36 72C55.8498 72 72 55.8501 72 35.9994C72 16.1493 55.8498 0 36 0ZM46.1746 22.7257C46.1746 22.8961 46.1069 23.0596 45.9864 23.1802C45.8658 23.3007 45.7023 23.3684 45.5319 23.3684L41.4395 23.371C38.7394 23.371 38.2457 24.4225 38.2457 26.4934V30.7894H45.2645C45.449 30.7894 45.6251 30.8691 45.7465 31.0079C45.868 31.1467 45.9246 31.3312 45.9021 31.5144L44.9026 39.2484C44.8826 39.4033 44.8069 39.5457 44.6895 39.6488C44.5722 39.752 44.4213 39.8089 44.265 39.8088H38.2457V59.013C38.2457 59.1834 38.178 59.3469 38.0575 59.4675C37.9369 59.588 37.7735 59.6557 37.603 59.6557H29.6176C29.4471 59.6557 29.2836 59.588 29.1631 59.4675C29.0425 59.3469 28.9748 59.1834 28.9748 59.013V39.8088H22.9363C22.7658 39.8088 22.6023 39.7411 22.4818 39.6206C22.3612 39.5 22.2935 39.3366 22.2935 39.1661V31.4321C22.2935 31.2617 22.3612 31.0982 22.4818 30.9776C22.6023 30.8571 22.7658 30.7894 22.9363 30.7894H28.9748V25.7279C28.9748 19.0242 33.0318 14.8606 39.564 14.8606C42.3721 14.8606 44.8538 15.0695 45.6161 15.1704C45.7706 15.1908 45.9124 15.2666 46.0151 15.3838C46.1179 15.501 46.1746 15.6515 46.1746 15.8073V22.7257Z" fill="#E9B733"/>
</svg>
