<svg width="173" height="116" viewBox="0 0 173 116" fill="none" xmlns="http://www.w3.org/2000/svg">
<g clip-path="url(#clip0_1549_860)">
<path d="M75.671 115.908C70.4874 115.409 68.5843 115.16 65.7269 114.605C59.6972 113.435 53.8753 111.133 49.3881 108.144C47.1617 106.661 43.1491 102.684 41.28 100.108C38.0769 95.6923 36.4153 92.1111 35.4209 87.4798C34.9218 85.1548 34.8439 84.0278 34.8354 79.0087C34.8277 74.4785 34.924 72.7157 35.2781 70.9036C35.8805 67.8206 37.0111 63.2328 37.2283 62.9898C37.3239 62.8827 38.211 63.4812 39.1995 64.3197L40.9968 65.8443L41.1516 68.6313C41.4444 73.9027 43.031 77.9511 46.3095 81.7925C49.0013 84.9465 52.4016 87.2388 56.3945 88.5914C58.756 89.3913 58.7117 89.5888 62.9999 90C67.2117 89.5888 67.8847 89.3669 69.9263 88.6895C71.12 88.2934 72.8186 87.5743 73.7011 87.0913C74.5836 86.6084 75.3409 86.2132 75.384 86.2132C75.4272 86.2132 75.6087 86.7053 75.7874 87.3068C75.9661 87.9082 76.5291 89.2108 77.0385 90.2014C77.5479 91.1921 77.9993 92.0756 78.0417 92.1648C78.0841 92.2541 77.7099 92.4043 77.2102 92.4988C75.1524 92.8879 73.6941 95.4779 74.2592 97.7397C75.2564 101.731 80.2695 104.73 86.0121 104.771C93.6092 104.825 100.273 99.0276 98.0161 94.3282C97.4023 93.0505 95.964 91.8739 95.0159 91.8739C94.3053 91.8739 94.3039 91.9247 95.052 90.5555C95.3904 89.9362 95.9789 88.5344 96.36 87.4404L97.0527 85.4513L97.7235 85.9279C98.9032 86.7661 100.887 87.6772 103.118 88.4056C104.955 89.0056 105.855 89.1326 108.99 89.235C112.147 89.3382 113.023 89.2764 114.939 88.8155C122.531 86.9895 128.553 81.4458 130.902 74.1199C131.784 71.3696 132.054 69.1175 131.891 65.8634L131.742 62.8677L133.39 61.5369L135.038 60.2061L135.307 60.9189C135.454 61.3109 135.861 62.7337 136.21 64.0805C139.197 75.6103 138.56 86.4993 134.396 95.0902C128.512 107.231 117.958 113.252 98.7379 115.431C95.291 115.822 78.4025 116.171 75.671 115.908Z" fill="#F0F7EB"/>
<path d="M105.14 86.2112C102.803 85.6317 100.781 84.7556 98.9433 83.5263L97.5737 82.6101L97.4342 80.6167C97.2268 77.6507 96.4551 75.8506 94.587 73.9752C93.6498 73.0343 92.5478 72.2171 91.8113 71.9168C90.9479 71.5647 90.5363 71.2301 90.4071 70.7754C90.0499 69.5191 90.2407 64.2824 90.707 62.5417C93.0127 53.934 100.879 47.8789 109.756 47.8789C118.527 47.8789 126.06 53.5083 128.687 62.0271C129.545 64.8073 129.545 69.7963 128.687 72.5765C126.036 81.1708 118.49 86.7663 109.628 86.7079C108.053 86.6975 106.334 86.5072 105.14 86.2112ZM106.354 73.9632C107.793 72.7954 108.471 71.4433 108.47 69.7462C108.466 66.3275 106.09 64.1161 102.722 64.3975C100.819 64.5566 99.5257 65.4745 98.6428 67.293C97.4138 69.8246 98.1246 72.4874 100.455 74.0804C101.642 74.8919 101.818 74.9357 103.546 74.8482C105.138 74.7677 105.506 74.6516 106.354 73.9632Z" fill="#F0F7EB"/>
<path d="M141.506 86.6639C141.587 86.204 141.728 83.6856 141.82 81.0676C142 75.9476 141.69 70.6563 140.954 66.2793L140.522 63.7131L142.471 62.7652C144.788 61.6381 147.514 59.1649 148.788 57.0325C150.843 53.5946 151.671 49.3327 151.665 42.2146C151.655 29.5943 148.1 21.411 141.477 18.7638C139.343 17.9111 134.616 17.9125 132.231 18.7667C128.155 20.2261 124.417 23.3159 121.316 27.7867C121.274 27.8472 120.121 26.8032 118.753 25.4667C117.386 24.1303 115.641 22.5085 114.877 21.8627L113.488 20.6886L114.447 18.6507C117.637 11.876 123.139 6.10785 129.288 3.09161C133.792 0.881868 137.74 0.0166016 143.316 0.0166016C149.795 0.0166016 155.689 2.39682 162.197 7.64232C164.46 9.46623 169.153 14.1009 168.938 14.2996C168.896 14.3384 167.196 14.0962 165.16 13.7613C160.626 13.0155 159.753 12.9933 159.2 13.6097C158.328 14.5803 158.647 15.5366 160.373 17.1285C166.281 22.5774 170.283 29.6531 171.771 37.2773C172.292 39.9524 172.61 42.2146 172.465 42.2146C172.415 42.2146 171.244 41.5198 169.862 40.6707C167.16 39.0102 166.466 38.8399 165.671 39.6415C164.99 40.3272 165.027 41.1286 165.82 42.9148C169.452 51.089 170.019 57.7602 167.779 65.9509C167.556 66.7646 167.288 67.4304 167.184 67.4304C167.079 67.4304 165.939 66.0989 164.649 64.4714C162.523 61.7876 162.228 61.5124 161.474 61.5124C159.893 61.5124 159.696 62.0485 159.506 66.8761C159.27 72.9001 158.716 75.3028 156.581 79.5754C155.59 81.5591 153.708 84.6698 153.499 84.6698C153.43 84.6698 153.41 82.7747 153.454 80.4584C153.546 75.5896 153.461 75.3334 151.793 75.4585C150.784 75.5341 150.726 75.5947 148.66 78.7049C147.503 80.4481 146.019 82.5322 145.364 83.3364C143.935 85.0895 141.698 87.5002 141.5 87.5002C141.422 87.5002 141.425 87.1239 141.506 86.6639Z" fill="#F0F7EB"/>
<path d="M85.1459 63.6013C84.4671 58.4442 80.7043 52.601 75.9805 49.3682C69.604 45.0042 60.8815 44.2454 53.9885 47.4549C49.3687 49.606 45.611 53.2142 43.3739 57.6472C42.6664 59.0493 41.586 62.1945 41.586 62.8523C41.586 63.4759 41.1375 63.2243 39.3308 61.5874L37.9692 60.3538L38.9764 57.5235C41.455 50.5576 42.8825 47.4785 46.2526 41.8279C49.8113 35.8612 52.8036 32.1857 57.412 28.1204C69.3575 17.5828 86.6742 13.55 100.2 18.1557C109.795 21.423 118.654 29.2273 125.862 40.7619C128.492 44.9714 134.68 57.7038 134.235 57.9919C134.182 58.0262 133.479 58.6084 132.674 59.2856C131.307 60.4343 130.692 60.6213 130.692 59.8884C130.692 59.7198 130.353 58.8612 129.94 57.9803C126.979 51.6731 121.136 47.0544 114.374 45.6759C112.732 45.3411 111.411 45.2677 108.757 45.3636C105.771 45.4716 104.95 45.6005 102.862 46.2897C101.528 46.7301 99.5176 47.6297 98.3942 48.2887C95.671 49.8864 91.907 53.7035 90.4297 56.3656C89.2172 58.5505 88.0952 61.727 87.8755 63.5966L87.7274 64.8567H86.5192H85.3111L85.1459 63.6013Z" fill="#F0F7EB"/>
<path d="M59.0887 86.5605C52.9569 85.2362 47.5467 80.7185 45.137 74.9106C40.8046 64.4681 46.248 52.8561 57.2882 48.9897C59.1811 48.3268 59.6206 48.2744 63.2881 48.2744C66.9557 48.2744 67.3952 48.3268 69.2881 48.9897C78.4313 52.1918 84.0296 60.9465 82.7852 70.0963C82.6685 70.9541 82.5069 71.2908 82.2108 71.2926C81.5667 71.2965 79.1597 72.4999 78.0931 73.3512C75.9977 75.0238 74.7774 78.0174 74.7774 81.4856V83.3392L73.5054 84.128C69.3968 86.6757 63.909 87.6017 59.0887 86.5605ZM70.054 75.3786C71.5352 74.9685 73.0974 73.2419 73.4938 71.5771C74.8747 65.7757 67.1945 62.3528 64.0409 67.3642C62.6309 69.6048 63.1501 72.9657 65.1368 74.4586C66.6776 75.6165 68.1798 75.8975 70.054 75.3786Z" fill="#F0F7EB"/>
<path d="M29.6723 85.766C27.4146 83.1908 25.764 80.9951 23.8673 78.0439C22.192 75.4372 22.1607 75.4066 21.1704 75.4066C19.4627 75.4066 19.3323 75.8312 19.511 80.81L19.6634 85.0555L18.4995 83.2544C14.8028 77.534 13.7461 73.9585 13.3499 65.8308C13.156 61.8518 12.9564 61.4096 11.422 61.5584C10.6757 61.6307 10.275 62.0161 8.15083 64.7041L5.73008 67.7674L5.27763 66.2479C3.95474 61.8054 3.53589 56.8657 4.1436 52.8735C4.59323 49.9198 5.75035 46.0543 7.01795 43.2716C7.49439 42.2257 7.88423 41.1169 7.88423 40.8077C7.88423 40.1154 6.88482 39.1266 6.18511 39.1266C5.90062 39.1266 4.70165 39.7145 3.52073 40.433C0.0905586 42.52 0.411327 42.4844 0.614094 40.7551C1.34369 34.5327 3.72039 28.1952 7.15561 23.3123C8.04783 22.044 10.0129 19.7569 11.5225 18.2298C14.3901 15.3288 14.6485 14.8312 13.8697 13.7107C13.3569 12.9729 12.6201 12.9784 7.88423 13.7559C5.84807 14.0901 4.12467 14.3096 4.05446 14.2435C3.81495 14.0181 10.048 8.11948 12.3523 6.39078C16.1716 3.52557 20.959 1.2495 24.9905 0.38226C28.5659 -0.386866 35.0625 0.0421556 39.3798 1.3325C47.2301 3.67878 54.099 9.81546 58.2771 18.2155C58.9268 19.5217 59.4549 20.7375 59.4507 20.9172C59.4465 21.0969 58.7858 21.7444 57.9826 22.356C57.1794 22.9676 55.1968 24.6584 53.5769 26.1133L50.6315 28.7586L49.6744 27.2637C46.8289 22.819 42.224 19.3784 37.7903 18.3843C35.35 17.8372 32.0768 18.0072 30.0395 18.7869C27.1328 19.8993 24.3969 22.5619 22.7557 25.8754C19.8507 31.7409 18.8715 42.9928 20.5316 51.4335C21.5044 56.3793 24.5615 60.4939 28.8837 62.6744C30.1412 63.3088 31.3814 63.8279 31.6396 63.8279C31.8979 63.8279 32.1559 63.9147 32.213 64.0208C32.27 64.127 32.0459 66.0085 31.7149 68.202C30.944 73.3106 30.6667 80.8033 31.1092 84.5659C31.2843 86.0552 31.3759 87.3259 31.3126 87.3897C31.2493 87.4535 30.5112 86.7228 29.6723 85.766Z" fill="#F0F7EB"/>
<path d="M85.1176 102.785C84.8368 102.725 83.9751 102.549 83.2027 102.393C80.2886 101.806 77.5555 100.007 76.5459 98.013C75.8832 96.7038 75.9252 96.1436 76.7559 95.2106C77.7215 94.1262 79.2949 94.0363 80.3239 95.0067C81.8126 96.4107 82.5756 96.6335 85.8836 96.6303C88.5314 96.6276 89.1253 96.5466 90.2578 96.0332C90.9785 95.7064 91.8904 95.1001 92.2842 94.6859C92.8546 94.0859 93.2197 93.9326 94.0788 93.9326C94.9696 93.9326 95.2723 94.0704 95.8183 94.7243C96.1818 95.1597 96.4792 95.8011 96.4792 96.1497C96.4792 97.7493 94.5611 100.029 92.2009 101.234C90.0978 102.308 86.7094 102.785 85.1176 102.785Z" fill="#F0F7EB"/>
</g>
<defs>
<clipPath id="clip0_1549_860">
<rect width="172" height="116" fill="white" transform="translate(0.5)"/>
</clipPath>
</defs>
</svg>
