<svg width="72" height="72" viewBox="0 0 72 72" fill="none" xmlns="http://www.w3.org/2000/svg">
<g clip-path="url(#clip0_1565_1989)">
<path d="M31.1176 43.333L43.3396 36.0002L31.1176 28.6675V43.333Z" fill="#E9B733"/>
<path d="M36 0C16.119 0 0 16.1168 0 36C0 55.8833 16.119 72 36 72C55.881 72 72 55.881 72 36C72 16.119 55.881 0 36 0ZM55.548 37.5773C55.548 40.9523 55.1565 44.3273 55.1565 44.3273C55.1565 44.3273 54.774 47.2028 53.604 48.465C52.1167 50.1255 50.4518 50.1345 49.6868 50.2335C44.2148 50.652 36 50.6655 36 50.6655C36 50.6655 25.8345 50.5665 22.707 50.247C21.8363 50.0738 19.8855 50.1233 18.396 48.465C17.2237 47.2005 16.8435 44.3273 16.8435 44.3273C16.8435 44.3273 16.452 40.9545 16.452 37.5773V34.4137C16.452 31.0387 16.8435 27.666 16.8435 27.666C16.8435 27.666 17.226 24.7905 18.396 23.5238C19.8832 21.861 21.5483 21.852 22.3132 21.7575C27.783 21.3345 35.991 21.3345 35.991 21.3345H36.009C36.009 21.3345 44.217 21.3345 49.6868 21.7575C50.4495 21.852 52.1167 21.861 53.604 23.5215C54.7762 24.7883 55.1565 27.6637 55.1565 27.6637C55.1565 27.6637 55.548 31.0387 55.548 34.4137V37.5773Z" fill="#E9B733"/>
</g>
<defs>
<clipPath id="clip0_1565_1989">
<rect width="72" height="72" fill="white"/>
</clipPath>
</defs>
</svg>
