<svg width="44" height="44" viewBox="0 0 44 44" fill="none" xmlns="http://www.w3.org/2000/svg">
<path d="M21.9349 0.701294C17.7225 0.701294 13.6046 1.95044 10.102 4.29077C6.59946 6.6311 3.86956 9.95751 2.25751 13.8493C0.645459 17.7412 0.223674 22.0236 1.04549 26.1552C1.8673 30.2867 3.89581 34.0818 6.87448 37.0605C9.85316 40.0391 13.6482 42.0676 17.7798 42.8895C21.9113 43.7113 26.1938 43.2895 30.0856 41.6774C33.9774 40.0654 37.3038 37.3355 39.6442 33.8329C41.9845 30.3304 43.2336 26.2125 43.2336 22C43.2336 19.203 42.6827 16.4334 41.6124 13.8493C40.542 11.2653 38.9732 8.91731 36.9954 6.93954C35.0176 4.96177 32.6697 3.39292 30.0856 2.32256C27.5015 1.2522 24.7319 0.701294 21.9349 0.701294ZM21.9349 39.039C18.565 39.039 15.2706 38.0396 12.4686 36.1674C9.66656 34.2951 7.48263 31.634 6.19299 28.5205C4.90336 25.4071 4.56593 21.9811 5.22338 18.6759C5.88083 15.3706 7.50363 12.3346 9.88658 9.95163C12.2695 7.56869 15.3056 5.94589 18.6108 5.28843C21.916 4.63098 25.342 4.96841 28.4555 6.25805C31.5689 7.54769 34.23 9.73161 36.1023 12.5337C37.9746 15.3357 38.9739 18.63 38.9739 22C38.9739 26.519 37.1787 30.8529 33.9833 34.0484C30.7879 37.2438 26.454 39.039 21.9349 39.039Z" fill="#AAC767"/>
<path d="M28.3246 19.8702H24.0649V15.6105C24.0649 15.0456 23.8405 14.5038 23.4411 14.1044C23.0416 13.705 22.4999 13.4806 21.935 13.4806C21.3701 13.4806 20.8284 13.705 20.429 14.1044C20.0295 14.5038 19.8051 15.0456 19.8051 15.6105V19.8702H15.5454C14.9805 19.8702 14.4388 20.0946 14.0394 20.494C13.6399 20.8935 13.4155 21.4352 13.4155 22.0001C13.4155 22.5649 13.6399 23.1067 14.0394 23.5061C14.4388 23.9055 14.9805 24.1299 15.5454 24.1299H19.8051V28.3897C19.8051 28.9546 20.0295 29.4963 20.429 29.8957C20.8284 30.2952 21.3701 30.5196 21.935 30.5196C22.4999 30.5196 23.0416 30.2952 23.4411 29.8957C23.8405 29.4963 24.0649 28.9546 24.0649 28.3897V24.1299H28.3246C28.8895 24.1299 29.4312 23.9055 29.8307 23.5061C30.2301 23.1067 30.4545 22.5649 30.4545 22.0001C30.4545 21.4352 30.2301 20.8935 29.8307 20.494C29.4312 20.0946 28.8895 19.8702 28.3246 19.8702Z" fill="#AAC767"/>
</svg>
