<svg width="31" height="30" viewBox="0 0 31 30" fill="none" xmlns="http://www.w3.org/2000/svg">
<g clip-path="url(#clip0_3489_8722)">
<path d="M29.0938 20.625H26.2006L26.9441 19.8816C27.3102 19.5155 27.3102 18.922 26.9441 18.5559C26.5784 18.1898 25.9841 18.1898 25.6184 18.5559L23.5494 20.625H21.5938H19.7188H17.8058C18.7002 19.6284 19.25 18.3164 19.25 16.875V9.375H22.5312V10.3125C22.5312 10.83 22.9513 11.25 23.4688 11.25C23.9862 11.25 24.4062 10.83 24.4062 10.3125V7.35047C24.4062 5.62359 23.0014 4.21875 21.2745 4.21875H19.1117C18.7072 2.865 17.4523 1.875 15.9688 1.875H13.625C12.6195 1.875 11.6769 2.14359 10.8589 2.60812C10.5364 2.29313 10.3438 1.86656 10.3438 1.40625C10.3438 0.88875 9.92375 0.46875 9.40625 0.46875C8.88875 0.46875 8.46875 0.88875 8.46875 1.40625C8.46875 2.30531 8.80531 3.15562 9.39547 3.80391C9.19109 4.03734 9.00688 4.28766 8.84328 4.55297C8.03891 4.11328 7.53125 3.27844 7.53125 2.34375C7.53125 1.82625 7.11125 1.40625 6.59375 1.40625C6.07625 1.40625 5.65625 1.82625 5.65625 2.34375C5.65625 4.04531 6.62375 5.55422 8.135 6.28828C8.04875 6.67875 8 7.08375 8 7.5V9.73312C6.08234 10.4855 4.71875 12.3502 4.71875 14.5312V20.625H1.90625C1.38875 20.625 0.96875 21.045 0.96875 21.5625C0.96875 22.08 1.38875 22.5 1.90625 22.5H4.71875V23.4375C4.71875 23.955 5.13875 24.375 5.65625 24.375C5.94266 24.375 6.22484 24.3572 6.50469 24.3319C6.34906 25.5619 5.98766 26.7712 5.435 27.877L5.28641 28.1737C5.14109 28.4644 5.15656 28.8094 5.32719 29.0859C5.49828 29.363 5.80016 29.5312 6.125 29.5312H13.1562C13.6737 29.5312 14.0938 29.1112 14.0938 28.5938C14.0938 26.5303 13.8256 24.488 13.3044 22.5H18.7812V23.4375C18.7812 24.9886 20.0427 26.25 21.5938 26.25H23.4688C23.9862 26.25 24.4062 25.83 24.4062 25.3125V23.4375C24.4062 23.1084 24.3463 22.7939 24.2422 22.5H29.0938C29.6112 22.5 30.0312 22.08 30.0312 21.5625C30.0312 21.045 29.6112 20.625 29.0938 20.625ZM13.1384 20.625C14.3211 19.0561 15.0312 17.1117 15.0312 15V14.5312C15.0312 13.9875 14.9455 13.4634 14.7884 12.9708C15.552 12.465 16.4497 12.1875 17.375 12.1875V16.875C17.375 18.9427 15.6927 20.625 13.625 20.625H13.1384ZM22.5312 7.35047V7.5H19.25V6.09375H21.2745C21.9673 6.09375 22.5312 6.65766 22.5312 7.35047ZM9.875 7.5C9.875 5.43234 11.5573 3.75 13.625 3.75H15.9688C16.7441 3.75 17.375 4.38094 17.375 5.15625V10.3125C16.138 10.3125 14.9356 10.6664 13.8988 11.3152C12.9528 10.1344 11.502 9.375 9.875 9.375V7.5ZM6.59375 14.5312C6.59375 12.7219 8.06563 11.25 9.875 11.25C11.6844 11.25 13.1562 12.7219 13.1562 14.5312V15C13.1562 18.818 10.2884 21.9788 6.59375 22.4414V14.5312ZM7.58234 27.6562C8.04359 26.475 8.31969 25.2206 8.41859 23.9587C9.49016 23.6278 10.4745 23.1023 11.3445 22.4348C11.8372 24.1369 12.1245 25.8858 12.1991 27.6562H7.58234ZM22.5312 24.375H21.5938C21.0767 24.375 20.6562 23.9545 20.6562 23.4375V22.5H21.5938C22.1108 22.5 22.5312 22.9205 22.5312 23.4375V24.375Z" fill="#1D1F1D"/>
<path d="M15.0414 7.03125C15.5589 7.03125 15.9789 6.61125 15.9789 6.09375C15.9789 5.57625 15.5589 5.15625 15.0414 5.15625H15.0367C14.5192 5.15625 14.1016 5.57625 14.1016 6.09375C14.1016 6.61125 14.5239 7.03125 15.0414 7.03125Z" fill="#1D1F1D"/>
</g>
<defs>
<clipPath id="clip0_3489_8722">
<rect width="30" height="30" fill="white" transform="translate(0.5)"/>
</clipPath>
</defs>
</svg>
