<svg width="31" height="30" viewBox="0 0 31 30" fill="none" xmlns="http://www.w3.org/2000/svg">
<g clip-path="url(#clip0_3999_8347)">
<path d="M9.65 11.6469C9.88709 11.6469 10.0793 11.4547 10.0793 11.2176C10.0793 10.9805 9.88709 10.7883 9.65 10.7883C9.41291 10.7883 9.2207 10.9805 9.2207 11.2176C9.2207 11.4547 9.41291 11.6469 9.65 11.6469Z" fill="#1D1F1D"/>
<path d="M2.96629 6.7103H3.28489V12.9847C3.28489 14.7021 4.67713 16.0943 6.39462 16.0943H7.9366C7.48744 16.3213 7.02929 16.4847 6.56693 16.582C6.32484 16.6331 5.87417 16.728 5.78359 17.1106C5.72921 17.3404 5.82935 17.5587 6.08118 17.7595C6.23577 17.8826 6.60163 18.0274 7.15269 18.0274C7.93604 18.0274 9.0938 17.7344 10.55 16.671C10.6445 16.6771 10.7409 16.6819 10.8413 16.6841C11.0518 16.8773 11.2985 17.033 11.5735 17.1442L12.7613 21.9221L12.4459 26.3741H12.3063C12.0806 26.3741 11.8977 26.557 11.8977 26.7827C11.8977 27.0084 12.0806 27.1913 12.3063 27.1913H14.9229L15.5061 23.2562L16.2769 26.3744H16.1868C15.9611 26.3744 15.7782 26.5573 15.7782 26.783C15.7782 27.0086 15.9611 27.1916 16.1868 27.1916H18.9702L18.3111 21.5846C18.5778 21.2897 18.7945 20.9549 18.9556 20.5963C19.5565 20.7688 20.5045 21 22.0769 21C22.4389 21 22.8002 20.975 23.1559 20.9265C23.3555 21.3221 23.6177 21.6462 23.94 21.89C24.3554 22.2045 24.6015 22.6652 24.6224 23.1623L23.4384 26.3737H23.2354C23.0097 26.3737 22.8268 26.5567 22.8268 26.7823C22.8268 27.008 23.0097 27.191 23.2354 27.191H25.484V27.1915H28.8428V24.5858L29.4945 20.598V22.6701C29.4945 23.445 30.0017 24.1038 30.7016 24.3319C30.9676 24.4186 31.2417 24.2242 31.2417 23.9444C31.2417 23.7655 31.1246 23.6101 30.9544 23.5547C30.5818 23.4334 30.3118 23.0826 30.3118 22.6701V16.1259C30.3118 14.5913 29.7141 13.1482 28.6286 12.0621C27.5903 11.0239 25.9606 10.379 24.3751 10.379H18.7209C18.4952 10.379 18.3122 10.562 18.3122 10.7876C18.3122 11.0133 18.4952 11.1962 18.7209 11.1962H24.3751C25.7517 11.1962 27.1603 11.7494 28.0507 12.6399C28.9819 13.5716 29.4946 14.8095 29.4946 16.1259C29.4946 17.0822 29.3596 18.0332 29.0934 18.952L28.7384 20.1762L28.0257 24.5196V26.3743H27.1068V22.6156C27.1068 21.848 26.743 21.1359 26.1088 20.6622C25.8255 20.45 25.5907 20.1615 25.4108 19.8042C25.2686 19.5226 25.1596 19.1911 25.0955 18.8448C25.053 18.6176 25.0417 18.4491 25.0389 18.3872L25.0385 18.3795C25.034 18.2942 25.0055 18.2108 24.9522 18.144C24.8113 17.9671 24.5801 17.9281 24.403 18.023L24.3488 18.0517C23.9128 18.2817 23.1832 18.6666 21.6182 18.6666C21.0494 18.6666 20.5592 18.5732 20.1194 18.3807C19.6159 18.1607 19.2606 17.9013 19.0478 17.7199C18.8956 17.5926 18.6817 17.5801 18.5154 17.6893C18.3493 17.7983 18.2757 17.9998 18.333 18.1935C18.4514 18.5815 18.5508 19.1884 18.3527 19.8768C18.1796 20.4801 17.845 20.9033 17.5948 21.1521L17.454 21.2923L18.0513 26.3744H17.1188L15.9363 21.5905C16.633 20.7422 17.0514 19.7091 17.1399 18.6171C17.1592 18.3805 16.9692 18.1789 16.7319 18.1789C16.5186 18.1789 16.3425 18.3432 16.3251 18.5558C16.2413 19.5759 15.8189 20.5356 15.1146 21.291L14.9443 21.4738L14.2179 26.3741H13.2651L13.5856 21.8506L12.4587 17.3178C12.8514 17.3138 13.2386 17.2037 13.5883 16.9903C14.1385 16.6547 14.5259 16.0977 14.6511 15.4619C14.7361 15.0311 14.944 14.4011 15.4528 13.8454C15.6976 13.5782 15.9867 13.3538 16.3122 13.1787C16.8974 12.8639 17.3147 12.3281 17.4566 11.7088C17.6245 10.9761 17.5271 10.2059 17.1822 9.54004C16.635 8.48324 15.5557 7.82676 14.3656 7.82676H11.5372L11.0932 7.82814C8.69826 7.82814 6.74986 9.77679 6.74986 12.172V12.8058C6.74986 13.1314 6.49621 13.3983 6.18441 13.4006C6.02234 13.4031 5.86908 13.3354 5.75876 13.2149C5.65918 13.106 5.61002 12.9601 5.61002 12.8126V6.45677C5.61002 5.29813 4.67078 4.35889 3.51214 4.35889H2.93738C2.27398 4.35889 1.73725 4.91114 1.76258 5.58001C1.78659 6.21619 2.32961 6.7103 2.96629 6.7103ZM26.2896 26.3743H26.0764L26.2896 25.8148V26.3743ZM24.8657 20.4962C25.074 20.8221 25.3264 21.0973 25.6194 21.3166C26.0453 21.6349 26.2896 22.1083 26.2896 22.6156V23.5195L25.202 26.3738H24.3095L25.4412 23.3043V23.2314C25.4412 22.4497 25.0738 21.7234 24.4333 21.2384C24.2679 21.1134 24.1241 20.9539 24.0018 20.7636C24.2886 20.6919 24.5752 20.603 24.8657 20.4962ZM19.2773 18.8714C19.4318 18.9594 19.6033 19.0468 19.7921 19.1294C20.337 19.368 20.9343 19.4839 21.6183 19.4839C22.9416 19.4839 23.7644 19.2252 24.2916 18.991C24.2917 18.9922 24.292 18.9932 24.2922 18.9944C24.3418 19.2623 24.4119 19.5181 24.5014 19.7593C24.1389 19.8881 23.7839 19.9857 23.4254 20.0548C22.9857 20.1398 22.532 20.1829 22.077 20.1829C20.6403 20.1829 19.7664 19.9771 19.2073 19.8183C19.2766 19.4793 19.293 19.1597 19.2773 18.8714ZM7.39032 17.205C7.95559 17.0186 8.51005 16.746 9.04671 16.3922C9.14082 16.4235 9.24329 16.4542 9.35399 16.4834C8.52652 16.973 7.86374 17.1581 7.39032 17.205ZM2.93738 5.17611H3.51214C4.21942 5.17611 4.79279 5.74949 4.79279 6.45677V12.8005C4.79279 13.1592 4.91827 13.5108 5.16231 13.7736C5.43061 14.0625 5.80056 14.2209 6.19057 14.2179C6.94958 14.2121 7.56709 13.5787 7.56709 12.8058V12.172C7.56709 10.2274 9.14893 8.64537 11.0945 8.64537L11.5384 8.64399H14.3656C15.2625 8.64399 16.0441 9.11942 16.4566 9.9159C16.7125 10.4101 16.7848 10.9819 16.6601 11.5263C16.5708 11.9158 16.3029 12.2558 15.9251 12.4591C15.5186 12.6778 15.1569 12.9585 14.8501 13.2936C14.3461 13.844 14.0001 14.5391 13.8494 15.3039C13.7683 15.7155 13.5181 16.0759 13.1627 16.2927C12.8224 16.5003 12.4274 16.5548 12.0501 16.446C11.4753 16.2802 11.0546 15.8361 10.9177 15.2537V14.3147C10.9177 14.089 10.7348 13.906 10.5091 13.906C10.2834 13.906 10.1005 14.089 10.1005 14.3147V15.3411L10.1093 15.3828C10.1416 15.536 10.1868 15.683 10.2441 15.8229C9.22606 15.697 8.71819 15.3557 8.71423 15.353L8.6078 15.2771H6.39462C5.12849 15.2771 4.10211 14.2507 4.10211 12.9846V6.5495C4.10211 6.18696 3.80823 5.89307 3.44569 5.89307H2.94989C2.76771 5.89307 2.60514 5.76244 2.58188 5.58177C2.55391 5.3632 2.72414 5.17611 2.93738 5.17611Z" fill="#1D1F1D"/>
<path d="M10.6606 12.9797H11.0062C12.2618 12.9797 13.3105 12.0768 13.5371 10.8862C13.5849 10.6353 13.3902 10.4033 13.1349 10.4033C12.937 10.4033 12.7708 10.5458 12.7329 10.74C12.5754 11.5495 11.8611 12.1624 11.0062 12.1624H10.6606C10.4349 12.1624 10.252 12.3453 10.252 12.571C10.252 12.7967 10.4349 12.9797 10.6606 12.9797ZM16.3409 16.5508V16.9347C16.3409 17.1604 16.5239 17.3433 16.7495 17.3433C16.9752 17.3433 17.1581 17.1604 17.1581 16.9347V16.5508C17.1581 16.3251 16.9752 16.1422 16.7495 16.1422C16.5239 16.1422 16.3409 16.3251 16.3409 16.5508Z" fill="#1D1F1D"/>
</g>
<defs>
<clipPath id="clip0_3999_8347">
<rect width="30" height="30" fill="white" transform="translate(0.5)"/>
</clipPath>
</defs>
</svg>
